<svg xmlns="http://www.w3.org/2000/svg" xmlns:xlink="http://www.w3.org/1999/xlink" viewBox="0 0 1024.25 1024.25"><defs><style>.cls-1{fill:#f5f5f5;stroke:#000;stroke-miterlimit:10;stroke-width:0.25px;}.cls-2{fill:#333;}</style><symbol id="Icon" data-name="Icon" viewBox="0 0 1024.25 1024.25"><path id="App_Icon_Placeholder" data-name="App Icon Placeholder" class="cls-1" d="M357.12.12h310c102.81,0,154.19,0,209.52,17.5a217.42,217.42,0,0,1,130,130c17.5,55.34,17.5,106.73,17.5,209.52v310c0,102.8,0,154.19-17.5,209.52a217.38,217.38,0,0,1-130,130c-55.33,17.5-106.71,17.5-209.52,17.5h-310c-102.8,0-154.18,0-209.51-17.5a217.38,217.38,0,0,1-130-130C.12,821.31.12,769.92.12,667.12v-310C.12,254.34.12,203,17.63,147.61a217.42,217.42,0,0,1,130-130C202.94.12,254.32.12,357.12.12h0"/></symbol></defs><g id="Layer_2" data-name="Layer 2"><g id="App_Icon_Kit_A" data-name="App Icon Kit A"><use id="_YOUR_ICON_HERE_" data-name="[YOUR ICON HERE]" width="1024.25" height="1024.25" xlink:href="#Icon"/><rect class="cls-2" x="131.13" y="272.21" width="761.87" height="56.43" rx="9.41"/><rect class="cls-2" x="131.13" y="131.12" width="761.87" height="56.43" rx="9.41"/><rect class="cls-2" x="131.13" y="413.3" width="545.54" height="56.43" rx="9.41"/><rect class="cls-2" x="131.13" y="695.47" width="230.44" height="56.43" rx="9.41"/><rect class="cls-2" x="131.13" y="554.39" width="230.44" height="56.43" rx="9.41"/><rect class="cls-2" x="131.13" y="836.56" width="761.87" height="56.43" rx="9.41"/><rect class="cls-2" x="457.4" y="554.26" width="508.32" height="56.43" rx="9.09" transform="matrix(0.64, -0.76, 0.76, 0.64, -192.31, 751.65)"/><rect class="cls-2" x="486.54" y="616.89" width="56.43" height="190.51" rx="7.21" transform="translate(-361.55 647.26) rotate(-49.9)"/></g></g></svg>